<mxfile host="65bd71144e">
    <diagram id="XNNGlXIHdcnlJP7jXLbG" name="Page-1">
        <mxGraphModel dx="351" dy="219" grid="0" gridSize="10" guides="1" tooltips="1" connect="1" arrows="1" fold="1" page="1" pageScale="1" pageWidth="827" pageHeight="1169" math="0" shadow="0">
            <root>
                <mxCell id="0"/>
                <mxCell id="1" parent="0"/>
                <mxCell id="32" value="" style="whiteSpace=wrap;html=1;strokeWidth=0;fillColor=none;strokeColor=none;" parent="1" vertex="1">
                    <mxGeometry width="820" height="1160" as="geometry"/>
                </mxCell>
                <mxCell id="29" style="edgeStyle=none;rounded=0;html=1;exitX=1;exitY=0.5;exitDx=0;exitDy=0;exitPerimeter=0;entryX=0;entryY=0.5;entryDx=0;entryDy=0;entryPerimeter=0;endArrow=none;endFill=0;dashed=1;" parent="1" source="2" target="3" edge="1">
                    <mxGeometry relative="1" as="geometry"/>
                </mxCell>
                <mxCell id="70" style="edgeStyle=none;rounded=0;html=1;exitX=0.5;exitY=0.5;exitDx=0;exitDy=30;exitPerimeter=0;entryX=0.5;entryY=0;entryDx=0;entryDy=0;fontSize=8;endArrow=none;endFill=0;" edge="1" parent="1" source="2" target="9">
                    <mxGeometry relative="1" as="geometry"/>
                </mxCell>
                <mxCell id="2" value="Начало" style="html=1;dashed=0;whitespace=wrap;shape=mxgraph.dfd.start" parent="1" vertex="1">
                    <mxGeometry x="400" y="40" width="150" height="60" as="geometry"/>
                </mxCell>
                <mxCell id="3" value="&amp;nbsp;Алгоритм согласования (reconciliation)&lt;br&gt;&amp;nbsp;&lt;br&gt;&amp;nbsp;Вход: old_root, узел старого VDOM-дерева&lt;br&gt;&amp;nbsp; &amp;nbsp; &amp;nbsp; &amp;nbsp; &amp;nbsp; &amp;nbsp;new_root, узел нового VDOM-дерева&lt;br&gt;&amp;nbsp; &amp;nbsp; &amp;nbsp; &amp;nbsp; &amp;nbsp; &amp;nbsp;node_diffs, массив изменений узлов&lt;br&gt;&amp;nbsp; &amp;nbsp; &amp;nbsp; &amp;nbsp; &amp;nbsp; &amp;nbsp;tree_diffs, массив поддеревьев&lt;br&gt;&amp;nbsp;&lt;span style=&quot;text-align: center&quot;&gt;child_reconciliate&amp;nbsp;&lt;/span&gt;&lt;span style=&quot;color: rgb(51 , 51 , 51) ; font-family: &amp;#34;opensans&amp;#34; , &amp;#34;arial&amp;#34; , &amp;#34;freesans&amp;#34; , sans-serif ; font-size: 14px ; background-color: rgb(255 , 255 , 255)&quot;&gt;—&lt;/span&gt;&lt;span style=&quot;text-align: center&quot;&gt;&amp;nbsp;вспомогательная проц.&lt;/span&gt;" style="strokeWidth=2;html=1;shape=mxgraph.flowchart.annotation_1;align=left;pointerEvents=1;" parent="1" vertex="1">
                    <mxGeometry x="570" y="12.25" width="50" height="115.5" as="geometry"/>
                </mxCell>
                <mxCell id="73" style="edgeStyle=none;rounded=0;html=1;exitX=0.5;exitY=1;exitDx=0;exitDy=0;entryX=0.5;entryY=0;entryDx=0;entryDy=0;fontSize=8;endArrow=none;endFill=0;" edge="1" parent="1" source="5" target="49">
                    <mxGeometry relative="1" as="geometry"/>
                </mxCell>
                <mxCell id="5" value="Пока i &amp;lt; old_root.props.length" style="shape=loopLimit;whiteSpace=wrap;html=1;rotation=0;" parent="1" vertex="1">
                    <mxGeometry x="60" y="470" width="150" height="60" as="geometry"/>
                </mxCell>
                <mxCell id="77" style="edgeStyle=none;rounded=0;html=1;exitX=0.5;exitY=1;exitDx=0;exitDy=0;fontSize=8;endArrow=none;endFill=0;" edge="1" parent="1" source="7">
                    <mxGeometry relative="1" as="geometry">
                        <mxPoint x="380" y="1090" as="targetPoint"/>
                        <Array as="points">
                            <mxPoint x="625" y="1100"/>
                            <mxPoint x="380" y="1100"/>
                        </Array>
                    </mxGeometry>
                </mxCell>
                <mxCell id="7" value="tree_diffs.push({node: new_root.parent,&lt;br&gt;old_node: null,&lt;br&gt;new_node: new_root});" style="rounded=0;whiteSpace=wrap;html=1;" parent="1" vertex="1">
                    <mxGeometry x="550" y="180" width="150" height="60" as="geometry"/>
                </mxCell>
                <mxCell id="21" style="edgeStyle=none;rounded=0;html=1;exitX=1;exitY=0.5;exitDx=0;exitDy=0;entryX=0.5;entryY=0;entryDx=0;entryDy=0;endArrow=block;endFill=1;" parent="1" source="9" target="7" edge="1">
                    <mxGeometry relative="1" as="geometry">
                        <Array as="points">
                            <mxPoint x="625" y="150"/>
                        </Array>
                    </mxGeometry>
                </mxCell>
                <mxCell id="43" style="edgeStyle=none;rounded=0;html=1;exitX=0;exitY=0.5;exitDx=0;exitDy=0;entryX=0.5;entryY=0;entryDx=0;entryDy=0;endArrow=block;endFill=1;" edge="1" parent="1" source="9" target="35">
                    <mxGeometry relative="1" as="geometry">
                        <Array as="points">
                            <mxPoint x="335" y="150"/>
                        </Array>
                    </mxGeometry>
                </mxCell>
                <mxCell id="9" value="old_root == null" style="rhombus;whiteSpace=wrap;html=1;rotation=0;" parent="1" vertex="1">
                    <mxGeometry x="400" y="120" width="150" height="60" as="geometry"/>
                </mxCell>
                <mxCell id="78" style="edgeStyle=none;rounded=0;html=1;exitX=0.5;exitY=0.5;exitDx=0;exitDy=-25.5;exitPerimeter=0;fontSize=8;endArrow=none;endFill=0;startArrow=block;startFill=1;" edge="1" parent="1" source="13">
                    <mxGeometry relative="1" as="geometry">
                        <mxPoint x="474.8484848484849" y="1100" as="targetPoint"/>
                    </mxGeometry>
                </mxCell>
                <mxCell id="13" value="Конец" style="html=1;dashed=0;whitespace=wrap;shape=mxgraph.dfd.start" parent="1" vertex="1">
                    <mxGeometry x="400" y="1118" width="150" height="51" as="geometry"/>
                </mxCell>
                <mxCell id="76" style="edgeStyle=none;rounded=0;html=1;exitX=0.5;exitY=0;exitDx=0;exitDy=0;entryX=0.5;entryY=1;entryDx=0;entryDy=0;fontSize=8;endArrow=none;endFill=0;" edge="1" parent="1" source="17" target="55">
                    <mxGeometry relative="1" as="geometry"/>
                </mxCell>
                <mxCell id="17" value="" style="shape=loopLimit;whiteSpace=wrap;html=1;rotation=-180;" parent="1" vertex="1">
                    <mxGeometry x="50" y="930" width="150" height="60" as="geometry"/>
                </mxCell>
                <mxCell id="20" value="j++" style="text;html=1;resizable=0;autosize=1;align=center;verticalAlign=middle;points=[];fillColor=none;strokeColor=none;rounded=0;" parent="1" vertex="1">
                    <mxGeometry x="110" y="950" width="30" height="20" as="geometry"/>
                </mxCell>
                <mxCell id="31" value="Да" style="text;html=1;resizable=0;autosize=1;align=center;verticalAlign=middle;points=[];fillColor=none;strokeColor=none;rounded=0;" parent="1" vertex="1">
                    <mxGeometry x="580" y="130" width="30" height="20" as="geometry"/>
                </mxCell>
                <mxCell id="37" style="edgeStyle=none;html=1;exitX=1;exitY=0.5;exitDx=0;exitDy=0;entryX=0.5;entryY=0;entryDx=0;entryDy=0;rounded=0;endArrow=block;endFill=1;" edge="1" parent="1" source="35" target="36">
                    <mxGeometry relative="1" as="geometry">
                        <Array as="points">
                            <mxPoint x="455" y="210"/>
                        </Array>
                    </mxGeometry>
                </mxCell>
                <mxCell id="44" style="edgeStyle=none;rounded=0;html=1;exitX=0;exitY=0.5;exitDx=0;exitDy=0;entryX=0.5;entryY=0;entryDx=0;entryDy=0;endArrow=block;endFill=1;" edge="1" parent="1" source="35" target="39">
                    <mxGeometry relative="1" as="geometry">
                        <Array as="points">
                            <mxPoint x="235" y="210"/>
                        </Array>
                    </mxGeometry>
                </mxCell>
                <mxCell id="35" value="new_root == null" style="rhombus;whiteSpace=wrap;html=1;rotation=0;" vertex="1" parent="1">
                    <mxGeometry x="260" y="180" width="150" height="60" as="geometry"/>
                </mxCell>
                <mxCell id="69" style="edgeStyle=none;rounded=0;html=1;exitX=0.5;exitY=1;exitDx=0;exitDy=0;fontSize=8;endArrow=none;endFill=0;" edge="1" parent="1" source="36">
                    <mxGeometry relative="1" as="geometry">
                        <mxPoint x="280" y="1080" as="targetPoint"/>
                        <Array as="points">
                            <mxPoint x="460" y="1090"/>
                            <mxPoint x="280" y="1090"/>
                        </Array>
                    </mxGeometry>
                </mxCell>
                <mxCell id="36" value="tree_diffs.push({node: old_root.parent,&lt;br&gt;old_node: old_root,&lt;br&gt;new_node: null});" style="rounded=0;whiteSpace=wrap;html=1;" vertex="1" parent="1">
                    <mxGeometry x="380" y="240" width="150" height="60" as="geometry"/>
                </mxCell>
                <mxCell id="38" value="Да" style="text;html=1;resizable=0;autosize=1;align=center;verticalAlign=middle;points=[];fillColor=none;strokeColor=none;rounded=0;" vertex="1" parent="1">
                    <mxGeometry x="410" y="190" width="30" height="20" as="geometry"/>
                </mxCell>
                <mxCell id="41" style="edgeStyle=none;rounded=0;html=1;exitX=1;exitY=0.5;exitDx=0;exitDy=0;entryX=0.5;entryY=0;entryDx=0;entryDy=0;endArrow=block;endFill=1;" edge="1" parent="1" source="39" target="40">
                    <mxGeometry relative="1" as="geometry">
                        <Array as="points">
                            <mxPoint x="335" y="270"/>
                        </Array>
                    </mxGeometry>
                </mxCell>
                <mxCell id="46" style="edgeStyle=none;rounded=0;html=1;exitX=0;exitY=0.5;exitDx=0;exitDy=0;entryX=0.5;entryY=0;entryDx=0;entryDy=0;endArrow=block;endFill=1;" edge="1" parent="1" source="39" target="45">
                    <mxGeometry relative="1" as="geometry">
                        <Array as="points">
                            <mxPoint x="135" y="270"/>
                        </Array>
                    </mxGeometry>
                </mxCell>
                <mxCell id="39" value="old_root.type != new_root.type" style="rhombus;whiteSpace=wrap;html=1;rotation=0;" vertex="1" parent="1">
                    <mxGeometry x="160" y="240" width="150" height="60" as="geometry"/>
                </mxCell>
                <mxCell id="66" style="edgeStyle=none;rounded=0;html=1;exitX=0.5;exitY=1;exitDx=0;exitDy=0;fontSize=8;endArrow=none;endFill=0;entryX=0.5;entryY=0;entryDx=0;entryDy=0;" edge="1" parent="1" source="40" target="55">
                    <mxGeometry relative="1" as="geometry">
                        <mxPoint x="440" y="1090" as="targetPoint"/>
                        <Array as="points">
                            <mxPoint x="335" y="430"/>
                            <mxPoint x="440" y="430"/>
                            <mxPoint x="440" y="1080"/>
                            <mxPoint x="125" y="1080"/>
                        </Array>
                    </mxGeometry>
                </mxCell>
                <mxCell id="40" value="tree_diffs.push({node: old_root.parent,&lt;br&gt;old_node: old_root,&lt;br&gt;new_node: null});" style="rounded=0;whiteSpace=wrap;html=1;" vertex="1" parent="1">
                    <mxGeometry x="260" y="310" width="150" height="60" as="geometry"/>
                </mxCell>
                <mxCell id="42" value="Да" style="text;html=1;resizable=0;autosize=1;align=center;verticalAlign=middle;points=[];fillColor=none;strokeColor=none;rounded=0;" vertex="1" parent="1">
                    <mxGeometry x="300" y="250" width="30" height="20" as="geometry"/>
                </mxCell>
                <mxCell id="71" style="edgeStyle=none;rounded=0;html=1;exitX=0.5;exitY=1;exitDx=0;exitDy=0;entryX=0.5;entryY=0;entryDx=0;entryDy=0;fontSize=8;endArrow=none;endFill=0;" edge="1" parent="1" source="45" target="47">
                    <mxGeometry relative="1" as="geometry"/>
                </mxCell>
                <mxCell id="45" value="tree_diffs.push({node: old_root.parent,&lt;br&gt;old_node: old_root,&lt;br&gt;new_node: null});" style="rounded=0;whiteSpace=wrap;html=1;" vertex="1" parent="1">
                    <mxGeometry x="60" y="310" width="150" height="60" as="geometry"/>
                </mxCell>
                <mxCell id="72" style="edgeStyle=none;rounded=0;html=1;exitX=0.5;exitY=1;exitDx=0;exitDy=0;entryX=0.5;entryY=0;entryDx=0;entryDy=0;fontSize=8;endArrow=none;endFill=0;" edge="1" parent="1" source="47" target="5">
                    <mxGeometry relative="1" as="geometry"/>
                </mxCell>
                <mxCell id="47" value="diffs = []'&lt;br&gt;i = 0;&lt;br&gt;j = 0;" style="rounded=0;whiteSpace=wrap;html=1;" vertex="1" parent="1">
                    <mxGeometry x="60" y="390" width="150" height="60" as="geometry"/>
                </mxCell>
                <mxCell id="74" style="edgeStyle=none;rounded=0;html=1;exitX=0.5;exitY=1;exitDx=0;exitDy=0;entryX=0.5;entryY=0;entryDx=0;entryDy=0;fontSize=8;endArrow=none;endFill=0;" edge="1" parent="1" source="49" target="50">
                    <mxGeometry relative="1" as="geometry"/>
                </mxCell>
                <mxCell id="49" value="Пока j &amp;lt; new_root.props.length" style="shape=loopLimit;whiteSpace=wrap;html=1;rotation=0;" vertex="1" parent="1">
                    <mxGeometry x="60" y="550" width="150" height="60" as="geometry"/>
                </mxCell>
                <mxCell id="59" style="edgeStyle=none;rounded=0;html=1;exitX=1;exitY=0.5;exitDx=0;exitDy=0;entryX=0.5;entryY=0;entryDx=0;entryDy=0;fontSize=8;endArrow=block;endFill=1;" edge="1" parent="1" source="50" target="52">
                    <mxGeometry relative="1" as="geometry">
                        <Array as="points">
                            <mxPoint x="235" y="660"/>
                        </Array>
                    </mxGeometry>
                </mxCell>
                <mxCell id="65" style="edgeStyle=none;rounded=0;html=1;exitX=0;exitY=0.5;exitDx=0;exitDy=0;entryX=0.5;entryY=0;entryDx=0;entryDy=0;fontSize=8;endArrow=block;endFill=1;" edge="1" parent="1" source="50" target="57">
                    <mxGeometry relative="1" as="geometry">
                        <Array as="points">
                            <mxPoint x="20" y="660"/>
                            <mxPoint x="20" y="830"/>
                            <mxPoint x="125" y="830"/>
                        </Array>
                    </mxGeometry>
                </mxCell>
                <mxCell id="50" value="old_root.props[i] != new_root.props[j]" style="rhombus;whiteSpace=wrap;html=1;rotation=0;fontSize=11;" vertex="1" parent="1">
                    <mxGeometry x="60" y="630" width="150" height="60" as="geometry"/>
                </mxCell>
                <mxCell id="51" value="diffs.push({node: old_root.parent,&lt;br&gt;old_node: old_root,&lt;br&gt;new_node: new_root});" style="rounded=0;whiteSpace=wrap;html=1;" vertex="1" parent="1">
                    <mxGeometry x="280" y="750" width="150" height="60" as="geometry"/>
                </mxCell>
                <mxCell id="60" style="edgeStyle=none;rounded=0;html=1;exitX=1;exitY=0.5;exitDx=0;exitDy=0;entryX=0.5;entryY=0;entryDx=0;entryDy=0;fontSize=8;endArrow=block;endFill=1;" edge="1" parent="1" source="52" target="51">
                    <mxGeometry relative="1" as="geometry">
                        <Array as="points">
                            <mxPoint x="355" y="720"/>
                        </Array>
                    </mxGeometry>
                </mxCell>
                <mxCell id="61" style="edgeStyle=none;rounded=0;html=1;exitX=0;exitY=0.5;exitDx=0;exitDy=0;entryX=0.5;entryY=0;entryDx=0;entryDy=0;fontSize=8;endArrow=block;endFill=1;" edge="1" parent="1" source="52" target="53">
                    <mxGeometry relative="1" as="geometry">
                        <Array as="points">
                            <mxPoint x="125" y="720"/>
                        </Array>
                    </mxGeometry>
                </mxCell>
                <mxCell id="52" value="&lt;font style=&quot;font-size: 8px&quot;&gt;old_root.parent != null &amp;amp;&amp;amp;&amp;nbsp;&lt;br&gt;!(new_root.key in &lt;br&gt;parent.keys)&amp;nbsp;&lt;/font&gt;" style="rhombus;whiteSpace=wrap;html=1;rotation=0;fontSize=8;" vertex="1" parent="1">
                    <mxGeometry x="160" y="690" width="150" height="60" as="geometry"/>
                </mxCell>
                <mxCell id="63" style="edgeStyle=none;rounded=0;html=1;exitX=0.5;exitY=1;exitDx=0;exitDy=0;entryX=0.5;entryY=1;entryDx=0;entryDy=0;fontSize=8;endArrow=none;endFill=0;" edge="1" parent="1" source="53" target="51">
                    <mxGeometry relative="1" as="geometry">
                        <Array as="points">
                            <mxPoint x="125" y="820"/>
                            <mxPoint x="355" y="820"/>
                        </Array>
                    </mxGeometry>
                </mxCell>
                <mxCell id="53" value="node_diffs.push({node: old_root, diffs});&amp;nbsp;" style="rounded=0;whiteSpace=wrap;html=1;" vertex="1" parent="1">
                    <mxGeometry x="50" y="750" width="150" height="60" as="geometry"/>
                </mxCell>
                <mxCell id="55" value="" style="shape=loopLimit;whiteSpace=wrap;html=1;rotation=-180;" vertex="1" parent="1">
                    <mxGeometry x="50" y="1010" width="150" height="60" as="geometry"/>
                </mxCell>
                <mxCell id="56" value="i++;" style="text;html=1;resizable=0;autosize=1;align=center;verticalAlign=middle;points=[];fillColor=none;strokeColor=none;rounded=0;" vertex="1" parent="1">
                    <mxGeometry x="105" y="1030" width="40" height="20" as="geometry"/>
                </mxCell>
                <mxCell id="64" style="edgeStyle=none;rounded=0;html=1;exitX=0.5;exitY=0;exitDx=0;exitDy=0;fontSize=8;endArrow=none;endFill=0;" edge="1" parent="1" source="57">
                    <mxGeometry relative="1" as="geometry">
                        <mxPoint x="250" y="820" as="targetPoint"/>
                        <Array as="points">
                            <mxPoint x="125" y="830"/>
                            <mxPoint x="250" y="830"/>
                        </Array>
                    </mxGeometry>
                </mxCell>
                <mxCell id="75" style="edgeStyle=none;rounded=0;html=1;exitX=0.5;exitY=1;exitDx=0;exitDy=0;entryX=0.5;entryY=1;entryDx=0;entryDy=0;fontSize=8;endArrow=none;endFill=0;" edge="1" parent="1" source="57" target="17">
                    <mxGeometry relative="1" as="geometry"/>
                </mxCell>
                <mxCell id="57" value="&lt;span style=&quot;font-size: 12px&quot;&gt;child_reconciliate(&lt;br&gt;old_root, new_root, node_diffs, tree_diffs);&lt;/span&gt;" style="shape=process;whiteSpace=wrap;html=1;backgroundOutline=1;fontSize=8;rotation=0;" vertex="1" parent="1">
                    <mxGeometry x="50" y="850" width="150" height="60" as="geometry"/>
                </mxCell>
                <mxCell id="79" value="Да" style="text;html=1;resizable=0;autosize=1;align=center;verticalAlign=middle;points=[];fillColor=none;strokeColor=none;rounded=0;" vertex="1" parent="1">
                    <mxGeometry x="210" y="640" width="30" height="20" as="geometry"/>
                </mxCell>
                <mxCell id="80" value="Да" style="text;html=1;resizable=0;autosize=1;align=center;verticalAlign=middle;points=[];fillColor=none;strokeColor=none;rounded=0;" vertex="1" parent="1">
                    <mxGeometry x="320" y="700" width="30" height="20" as="geometry"/>
                </mxCell>
            </root>
        </mxGraphModel>
    </diagram>
</mxfile>